PathFileType	4	(X/Y/Z)	Patient4_TMGait_0pt6_01_right_32.trc.trc
DataRate	CameraRate	NumFrames	NumMarkers	Units	OrigDataRate	OrigDataStartFrame	OrigNumFrames
77.777777777778	77.777777777778	4	33	mm	77.777777777778	36	       141
Frame#	Time	Sacral			L.Shoulder			Chest			R.Shoulder			Neck			R.ASIS			L.ASIS			R.Thigh.Superior			R.Thigh.Lateral			R.Thigh.Inferior			R.Patella			L.Thigh.Superior			L.Thigh.Lateral			L.Thigh.Inferior			L.Patella			L.Shank.Superior			L.Shank.Lateral			L.Shank.Inferior			R.Shank.Superior			R.Shank.Lateral			R.Shank.Inferior			R.Heel			R.Midfoot.Superior			R.Midfoot.Lateral			R.Toe			L.Heel			L.Midfoot.Lateral			L.Midfoot.Superior			L.Toe			L.Elbow			L.Wrist			R.Elbow			R.Wrist			
		X1	Y1	Z1	X2	Y2	Z2	X3	Y3	Z3	X4	Y4	Z4	X5	Y5	Z5	X6	Y6	Z6	X7	Y7	Z7	X8	Y8	Z8	X9	Y9	Z9	X10	Y10	Z10	X11	Y11	Z11	X12	Y12	Z12	X13	Y13	Z13	X14	Y14	Z14	X15	Y15	Z15	X16	Y16	Z16	X17	Y17	Z17	X18	Y18	Z18	X19	Y19	Z19	X20	Y20	Z20	X21	Y21	Z21	X22	Y22	Z22	X23	Y23	Z23	X24	Y24	Z24	X25	Y25	Z25	X26	Y26	Z26	X27	Y27	Z27	X28	Y28	Z28	X29	Y29	Z29	X30	Y30	Z30	X31	Y31	Z31	X32	Y32	Z32	X33	Y33	Z33	

36	38.720000000000	753.024161689937	1002.702875768875	494.563290846384	922.893233531815	1437.459273363338	320.534448862499	1020.943471697078	1372.222102905698	485.192792778769	925.480342481457	1437.956886469205	654.759542497133	891.613682772496	1493.853113891093	473.763569239323	977.768991366560	943.259460713164	620.539559725358	972.185877857912	961.031692035837	347.302283645772	1036.630712809103	748.934027088186	594.585915189202	961.149066193494	634.263314347518	649.502348413027	1047.584566783212	588.798080903250	573.846586591007	1056.020470585665	499.700748143841	580.077644486565	1006.013007108766	737.026182221879	369.489723393289	916.727441004239	626.862074379499	299.791957521351	999.285976961885	538.790821847852	357.502399054649	988.917453224660	453.835355378523	352.967418378303	920.127292200743	397.268763975873	346.992390803275	780.092008837539	353.471358484275	297.478731402915	765.981220433184	225.856293661260	355.186198851781	1032.760088515757	409.795982714581	584.396516383963	964.485996067418	301.337944356532	639.916846921372	1015.692693600745	209.666856524567	579.457458701711	892.549185349558	42.832937654457	540.568107188200	1061.327866752723	97.659578618457	584.904940244630	972.095369847892	37.192287008408	619.847015823826	1180.506579521187	45.122345318788	618.874591834831	575.823377012954	158.686213496384	393.158507344851	634.775239748431	109.369581521578	317.298852298790	737.874216222682	122.964098740299	338.471131063489	819.574449304232	31.094886944634	321.154394414304	965.909942131057	1091.215547399387	189.149471162711	1201.425536748424	978.863975438602	180.078471658479	820.655677850589	1103.007068853942	756.234923497052	835.984279454952	842.111495462457	759.652202863809	
37	38.732857142857	752.689509590490	1003.436151784533	498.690381531055	921.465352860905	1437.693809555067	322.807939676868	1021.074508037094	1372.674312173717	486.652436819461	927.280821107888	1438.699646939972	657.000373962592	891.697928494328	1494.390475433700	476.176477734056	978.140368111087	943.793543790680	623.026796451611	971.200729278721	961.553528354416	349.778302748278	1034.731382205987	748.107072431580	597.494939643736	957.765150867693	634.187479101373	651.816458452606	1043.555482448171	588.008180462792	575.846244718682	1050.789839258241	499.017985936994	581.473438296943	1010.553557463978	739.992711667663	372.421372449379	926.183736864219	627.620545965087	301.503696833153	1011.343421207027	541.508162377593	359.576808923136	1002.385101347003	455.419934469336	354.472304646061	931.907508963124	398.858294460035	348.253655892911	790.425011858284	360.029162515766	298.374893662540	772.085445225530	232.723561078400	355.511694786626	1027.243340005314	409.310289413820	585.652715192469	958.594712560635	301.073149738464	640.991866342839	1009.023879374286	209.337543090731	579.941968076970	884.966371285597	42.797727008740	540.744297133634	1053.789525444955	97.606686286242	585.190168194317	964.479096778393	37.162770133625	620.034046696531	1172.932374702853	44.813786813697	619.131734415308	579.523839530958	175.475340393696	392.653647823253	635.837190403927	122.519238530420	316.904727502184	739.794179768956	129.351951302552	338.449630892218	814.750524547990	30.311383672501	321.174034333816	960.335093095191	1089.619138704589	194.124538731405	1190.707423102944	966.372796477880	184.238195934845	828.422859907343	1101.653664705409	760.328982137236	856.851816111167	841.677003917202	761.759928356104	
38	38.745714285714	752.140934148617	1004.023009279669	502.707352608390	919.777166684682	1437.757148212275	324.954919138114	1021.057609519652	1372.898821586524	487.900971454673	929.093039720053	1439.183749422102	659.133888383822	891.748116049101	1494.787923807877	478.489339984722	978.303859132540	944.145829529784	625.281047148424	970.011518914013	961.944215136189	351.977129347217	1032.619639729996	747.232138771659	600.119111201161	954.362298180199	634.067774106861	654.008149572326	1039.441724586171	587.203415824091	577.681552471115	1045.507867645921	498.326628950319	582.815404326518	1014.818201129363	743.154615640942	375.198888023485	935.385810327682	628.783516524493	303.134851633480	1022.999064228489	544.786021081718	361.687577228867	1015.669398492419	457.659152966905	356.183186677859	943.793493814472	400.929764269021	349.665268127970	801.166276844050	366.537726511767	299.349267346412	778.998940972304	239.618090819047	356.090377847593	1021.663601457306	408.791072269007	586.851473826717	952.623775205657	300.776585339369	642.018845536121	1002.300520673905	208.976651793081	580.410611824683	877.312343314351	42.766531516732	540.905912605271	1046.199128789360	97.510616094167	585.442992678498	956.800921240225	37.114583498930	620.200741884837	1165.304378212890	44.435388612376	619.351243003145	584.547347615601	191.274273806403	392.404327352687	638.472867641656	135.396570005808	316.645307015011	742.977267042590	136.088034224697	338.658331332187	811.713923646742	30.019121191955	321.066398699535	954.794633953315	1087.904944583778	199.021636970172	1178.994906368133	953.286555199969	188.416052210459	836.506498592839	1100.214518834143	764.538816763601	878.637806310720	841.928934831014	763.826934234346	
39	38.758571428571	751.408982601905	1004.501479478745	506.588896527487	917.877509725089	1437.705244148064	326.967047600950	1020.886491470960	1372.946398082220	488.955676109881	930.865186685951	1439.465011036421	661.143622799824	891.772902491376	1495.097235229155	480.679204164984	978.257155455482	944.374102415692	627.329668159372	968.599391688569	962.240838912601	353.932167415859	1030.337365438686	746.367766952458	602.447000911989	950.960187587855	633.938876137386	656.071266782085	1035.270673461002	586.410054596299	579.368238138959	1040.199959158226	497.651503509327	584.109096327534	1018.704321867853	746.536467843476	377.826011559727	944.122896588559	630.405991103950	304.681337433146	1034.069028338129	548.649515226856	363.735011525826	1028.584661390501	460.584883917624	357.936157046476	955.623596342486	403.503997821734	351.109939775989	812.109944922799	372.832309533026	300.390529912104	786.734145119472	246.278807396013	356.860763573751	1016.040824303677	408.263388859466	587.994092283653	946.588918659494	300.478582537282	643.007056842352	995.534588008213	208.607527280595	580.874793464729	869.599191084914	42.749742233476	541.064699560474	1038.565024958929	97.388037597525	585.671811010525	949.075907094378	37.057883796181	620.357138427575	1157.634038550349	44.022105731267	619.543806839967	590.881069336368	205.300497320205	392.464071164079	642.819040630021	147.326580755640	316.551423441067	747.629066764016	142.845519789449	339.032901355412	811.047259242705	30.352574376480	320.778866251119	949.306815587576	1086.136427127711	203.827413659175	1166.196027766560	939.779995133832	192.608073485622	844.997978115840	1098.714733921922	768.786659893094	901.239468814104	842.992755192632	765.778779754115	
